HIERARCHY
ROOT Hips
{
	OFFSET 0.000000 0.000000 0.000000
	CHANNELS 6 Xposition Yposition Zposition Xrotation Yrotation Zrotation
	JOINT LeftUpLeg_virtual
	{
		OFFSET 0.000000 0.000000 0.000000
		CHANNELS 3 Xrotation Yrotation Zrotation
		JOINT LeftUpLeg
		{
			OFFSET 13.026900 -6.336304 -1.092800
			CHANNELS 3 Xrotation Yrotation Zrotation
			JOINT LeftLeg
			{
				OFFSET 0.524474 -46.096886 9.782700
				CHANNELS 3 Xrotation Yrotation Zrotation
				JOINT LeftFoot
				{
					OFFSET -0.524474 -53.427422 -12.948200
					CHANNELS 3 Xrotation Yrotation Zrotation
					JOINT LeftToeBase
					{
						OFFSET 0.192200 -14.009700 16.364100
						CHANNELS 3 Xrotation Yrotation Zrotation
						JOINT LeftToe_End
						{
							OFFSET -1.784700 -0.561700 9.474800
							CHANNELS 3 Xrotation Yrotation Zrotation
							End Site
							{
								OFFSET 0 0 0
							}
						}
					}
				}
			}
		}
	}
	JOINT RightUpLeg_virtual
	{
		OFFSET 0.000000 0.000000 0.000000
		CHANNELS 3 Xrotation Yrotation Zrotation
		JOINT RightUpLeg
		{
			OFFSET -12.883000 -6.336304 -1.092800
			CHANNELS 3 Xrotation Yrotation Zrotation
			JOINT RightLeg
			{
				OFFSET -0.524587 -46.096825 9.782800
				CHANNELS 3 Xrotation Yrotation Zrotation
				JOINT RightFoot
				{
					OFFSET 0.524587 -53.427383 -12.948300
					CHANNELS 3 Xrotation Yrotation Zrotation
					JOINT RightToeBase
					{
						OFFSET -0.192200 -14.009700 16.364100
						CHANNELS 3 Xrotation Yrotation Zrotation
						JOINT RightToe_End
						{
							OFFSET 1.784700 -0.561700 9.474800
							CHANNELS 3 Xrotation Yrotation Zrotation
							End Site
							{
								OFFSET 0 0 0
							}
						}
					}
				}
			}
		}
	}
	JOINT Spine_virtual
	{
		OFFSET 0.000000 0.000000 0.000000
		CHANNELS 3 Xrotation Yrotation Zrotation
		JOINT Spine
		{
			OFFSET 0.072000 7.257294 -0.789700
			CHANNELS 3 Xrotation Yrotation Zrotation
			JOINT Spine1
			{
				OFFSET 0.000000 12.508769 -0.658067
				CHANNELS 3 Xrotation Yrotation Zrotation
				JOINT Spine1_split
				{
					OFFSET 0.000000 12.508769 -0.658067
					CHANNELS 3 Xrotation Yrotation Zrotation
					JOINT Spine2
					{
						OFFSET 0.000000 12.508769 -0.658067
						CHANNELS 3 Xrotation Yrotation Zrotation
						JOINT Neck_virtual
						{
							OFFSET 0.000000 0.000000 0.000000
							CHANNELS 3 Xrotation Yrotation Zrotation
							JOINT Neck
							{
								OFFSET 0.000000 14.033295 7.520400
								CHANNELS 3 Xrotation Yrotation Zrotation
								JOINT Head
								{
									OFFSET 0.000000 8.198502 5.703100
									CHANNELS 3 Xrotation Yrotation Zrotation
									JOINT HeadTop_End
									{
										OFFSET 0.000000 17.760803 13.332701
										CHANNELS 3 Xrotation Yrotation Zrotation
										End Site
										{
											OFFSET 0 0 0
										}
									}
								}
							}
						}
						JOINT LeftShoulder_virtual
						{
							OFFSET 0.000000 0.000000 0.000000
							CHANNELS 3 Xrotation Yrotation Zrotation
							JOINT LeftShoulder
							{
								OFFSET 6.292450 5.785301 -0.669000
								CHANNELS 3 Xrotation Yrotation Zrotation
								JOINT LeftShoulder_split
								{
									OFFSET 6.292450 5.785301 -0.669000
									CHANNELS 3 Xrotation Yrotation Zrotation
									JOINT LeftArm
									{
										OFFSET 13.907140 -6.093903 1.965100
										CHANNELS 3 Xrotation Yrotation Zrotation
										JOINT LeftForeArm
										{
											OFFSET 34.140198 0.000000 0.000000
											CHANNELS 3 Xrotation Yrotation Zrotation
											JOINT LeftHand
											{
												OFFSET 40.960209 0.000000 0.000000
												CHANNELS 3 Xrotation Yrotation Zrotation
												End Site
												{
													OFFSET 0 0 0
												}
											}
										}
									}
								}
							}
						}
						JOINT RightShoulder_virtual
						{
							OFFSET 0.000000 0.000000 0.000000
							CHANNELS 3 Xrotation Yrotation Zrotation
							JOINT RightShoulder
							{
								OFFSET -6.292450 5.785301 -0.669000
								CHANNELS 3 Xrotation Yrotation Zrotation
								JOINT RightShoulder_split
								{
									OFFSET -6.292450 5.785301 -0.669000
									CHANNELS 3 Xrotation Yrotation Zrotation
									JOINT RightArm
									{
										OFFSET -13.907140 -6.093903 1.965100
										CHANNELS 3 Xrotation Yrotation Zrotation
										JOINT RightForeArm
										{
											OFFSET -34.140198 0.000000 0.000000
											CHANNELS 3 Xrotation Yrotation Zrotation
											JOINT RightHand
											{
												OFFSET -40.960209 0.000000 0.000000
												CHANNELS 3 Xrotation Yrotation Zrotation
												End Site
												{
													OFFSET 0 0 0
												}
											}
										}
									}
								}
							}
						}
					}
				}
			}
		}
	}
}
MOTION
Frames: 5
Frame Time: 0.03333333
0.701849 58.087658 -4.018970 0.000000 0.000000 0.000000 178.669662 -7.900132 172.116983 -80.919614 -18.253556 15.203007 102.519562 3.218874 1.730761 -14.743563 4.395505 -16.395022 -7.232848 0.048587 1.221313 0.000000 0.000000 0.000000 178.341744 -4.242169 172.570931 -55.391974 17.004871 -27.204032 96.944345 4.537539 -0.692926 -21.286348 -6.692446 32.227899 -4.668816 -2.390267 -0.109170 0.000000 0.000000 0.000000 179.074911 -5.745646 169.731280 6.933714 4.951900 -2.909609 8.076942 7.106844 -3.978307 0.586577 -3.544534 0.729591 0.000000 0.000000 0.000000 7.861709 6.587470 -3.803324 -3.095285 23.931619 6.798112 5.701658 33.961722 -24.668246 0.000000 0.000000 0.000000 8.522351 6.893602 -4.072994 0.899280 -13.557041 -10.436375 -3.409697 -1.401873 -3.835633 3.648606 2.730761 -31.463799 36.930655 -40.705223 1.332801 0.000000 0.000000 0.000000 8.056467 6.927291 -4.360585 5.020594 -18.083629 13.649198 1.127460 2.118517 -1.514203 13.214019 -13.306366 60.211779 34.459985 50.460406 -8.464852 0.000000 0.000000 0.000000 
0.689135 58.090565 -3.984608 0.000000 0.000000 0.000000 178.663241 -7.889982 172.127024 -80.917388 -18.262247 15.205184 102.518407 3.221924 1.744611 -14.728005 4.387365 -16.386937 -7.230127 0.047944 1.221503 0.000000 0.000000 0.000000 178.334655 -4.239078 172.579127 -55.394412 17.002694 -27.197141 96.935862 4.537078 -0.693543 -21.294448 -6.690613 32.242424 -4.671230 -2.387009 -0.112190 0.000000 0.000000 0.000000 179.057207 -5.734331 169.745091 6.925080 4.950180 -2.899922 8.065324 7.105496 -3.967304 0.562244 -3.548792 0.731945 0.000000 0.000000 0.000000 7.860212 6.588283 -3.794296 -3.049872 23.947924 6.775017 5.683765 33.961770 -24.653020 0.000000 0.000000 0.000000 8.519883 6.892221 -4.062462 0.901252 -13.578546 -10.448413 -3.421254 -1.413767 -3.846338 3.613355 2.761492 -31.461351 36.924150 -40.672052 1.320225 0.000000 0.000000 0.000000 8.044079 6.924531 -4.350569 5.024131 -18.081628 13.635048 1.138907 2.097279 -1.514681 13.198505 -13.303881 60.207585 34.447304 50.436504 -8.463354 0.000000 0.000000 0.000000 
0.670274 58.099682 -3.957966 0.000000 0.000000 0.000000 178.634049 -7.898336 172.127187 -80.912675 -18.263880 15.190423 102.506113 3.227530 1.757013 -14.710245 4.373079 -16.369781 -7.229128 0.046964 1.221435 0.000000 0.000000 0.000000 178.306733 -4.255291 172.581026 -55.400672 17.001372 -27.201288 96.935472 4.535381 -0.692507 -21.292927 -6.677734 32.273699 -4.669743 -2.384544 -0.118729 0.000000 0.000000 0.000000 179.023233 -5.739960 169.751634 6.916133 4.940003 -2.890047 8.050472 7.106333 -3.949152 0.559678 -3.542153 0.736876 0.000000 0.000000 0.000000 7.846909 6.592892 -3.777827 -2.964658 23.955878 6.736469 5.700249 33.961312 -24.684000 0.000000 0.000000 0.000000 8.510815 6.893066 -4.045248 0.898809 -13.625841 -10.473495 -3.431129 -1.408504 -3.859053 3.575452 2.816670 -31.464868 36.910889 -40.647791 1.306831 0.000000 0.000000 0.000000 8.023906 6.926338 -4.332088 5.033300 -18.082936 13.595202 1.156008 2.089513 -1.515691 13.163788 -13.270970 60.234373 34.423668 50.349552 -8.457846 0.000000 0.000000 0.000000 
0.650752 58.112865 -3.943295 0.000000 0.000000 0.000000 178.587249 -7.924536 172.116191 -80.910517 -18.254526 15.161287 102.485998 3.236002 1.765838 -14.699327 4.356080 -16.343248 -7.218118 0.046164 1.218789 0.000000 0.000000 0.000000 178.261749 -4.287135 172.572762 -55.402547 17.003215 -27.216352 96.945957 4.530625 -0.690238 -21.288774 -6.661195 32.317819 -4.663604 -2.383059 -0.127068 0.000000 0.000000 0.000000 178.976952 -5.764890 169.747850 6.912455 4.924527 -2.881915 8.037139 7.112115 -3.926132 0.573529 -3.532325 0.736393 0.000000 0.000000 0.000000 7.826940 6.602863 -3.756513 -2.850677 23.953146 6.694687 5.758653 33.967364 -24.767220 0.000000 0.000000 0.000000 8.499454 6.897373 -4.023787 0.891906 -13.693839 -10.509554 -3.437763 -1.389109 -3.863470 3.533010 2.884949 -31.471685 36.892300 -40.638461 1.295144 0.000000 0.000000 0.000000 8.002331 6.934867 -4.307856 5.046664 -18.089514 13.532866 1.172872 2.093844 -1.527109 13.109017 -13.205285 60.292436 34.386943 50.200412 -8.446903 0.000000 0.000000 0.000000 
0.632087 58.127914 -3.934082 0.000000 0.000000 0.000000 178.528140 -7.966268 172.096424 -80.916240 -18.239023 15.119433 102.463049 3.241715 1.774141 -14.691920 4.335241 -16.317500 -7.191422 0.045816 1.213738 0.000000 0.000000 0.000000 178.206274 -4.330946 172.554826 -55.391806 17.007755 -27.239944 96.965587 4.520141 -0.686650 -21.286401 -6.650930 32.365862 -4.653591 -2.383271 -0.134424 0.000000 0.000000 0.000000 178.922693 -5.810319 169.737263 6.916605 4.909342 -2.876509 8.029429 7.124077 -3.900423 0.585860 -3.522585 0.734950 0.000000 0.000000 0.000000 7.807376 6.619014 -3.733520 -2.719667 23.941994 6.665509 5.866026 33.985334 -24.906546 0.000000 0.000000 0.000000 8.492019 6.906340 -4.000221 0.882186 -13.774026 -10.552326 -3.433884 -1.365970 -3.856872 3.484140 2.957445 -31.478757 36.871642 -40.653450 1.289651 0.000000 0.000000 0.000000 7.986299 6.950782 -4.281101 5.063020 -18.108910 13.452463 1.176335 2.098451 -1.546335 13.035320 -13.107188 60.373094 34.338991 49.999867 -8.432974 0.000000 0.000000 0.000000 
